<svg xmlns="http://www.w3.org/2000/svg" width="114" height="40" fill="none"><rect width="113.571" height="40" fill="#E5ECF4" rx="4"/><path fill="#495567" fill-rule="evenodd" d="M67.487 30.7a4.973 4.973 0 0 1-1.515.214c-.657 0-1.235-.093-1.735-.279a3.476 3.476 0 0 1-1.25-.771 3.256 3.256 0 0 1-.758-1.158 3.984 3.984 0 0 1-.257-1.45v-.428h1.886v.343c0 .6.174 1.078.521 1.436.348.357.888.535 1.622.535.571 0 .995-.124 1.271-.371.276-.248.414-.543.414-.886 0-.162-.028-.317-.085-.464a.986.986 0 0 0-.3-.4 2.084 2.084 0 0 0-.586-.322 5.149 5.149 0 0 0-.943-.243 9.533 9.533 0 0 1-1.386-.335 3.856 3.856 0 0 1-1.092-.55 2.368 2.368 0 0 1-.722-.857c-.171-.343-.257-.762-.257-1.258v-.085c0-.41.083-.788.25-1.136.167-.348.4-.65.7-.907.3-.257.662-.457 1.086-.6a4.431 4.431 0 0 1 1.421-.214c.59 0 1.114.083 1.572.25.457.166.84.393 1.15.678.31.286.543.614.7.986.157.371.235.762.235 1.171v.515h-1.885v-.343c0-.4-.155-.748-.465-1.043-.31-.295-.745-.443-1.307-.443-.476 0-.852.098-1.128.293a.922.922 0 0 0-.415.793c0 .171.034.326.1.464a.952.952 0 0 0 .35.371c.167.11.386.208.657.293a8.69 8.69 0 0 0 1.036.243c1.048.19 1.848.51 2.4.957.553.448.829 1.11.829 1.986v.172c0 .466-.084.888-.25 1.264a2.665 2.665 0 0 1-.722.964 3.288 3.288 0 0 1-1.142.614Zm-28.159.014.486-2.143h3.4l.486 2.143h1.971l-2.386-10h-3.542l-2.386 10h1.971ZM42.8 26.77h-2.586l1.172-5.114h.257L42.8 26.77Zm4.99 2.914v3.886h-1.8v-9.943h1.8v1.029h.258c.19-.39.466-.693.828-.908.362-.214.824-.321 1.386-.321.42 0 .817.08 1.193.243.376.162.705.397.986.707.28.31.504.688.671 1.136.167.447.25.957.25 1.528v.257c0 .581-.08 1.096-.243 1.543a3.442 3.442 0 0 1-.657 1.136c-.276.31-.602.543-.979.7a3.138 3.138 0 0 1-1.221.236 3.15 3.15 0 0 1-.843-.1 2.249 2.249 0 0 1-.621-.272 1.867 1.867 0 0 1-.443-.393 2.896 2.896 0 0 1-.307-.464h-.257Zm1.886-.486c-.562 0-1.016-.178-1.364-.535-.348-.358-.521-.827-.521-1.408v-.17c0-.582.173-1.05.521-1.408.348-.357.802-.536 1.364-.536s1.017.174 1.365.522c.347.347.521.821.521 1.421v.171c0 .6-.174 1.074-.521 1.422-.348.348-.803.521-1.365.521Zm6.22.486v3.886h-1.8v-9.943h1.8v1.029h.257c.19-.39.467-.693.828-.908.362-.214.824-.321 1.386-.321.42 0 .817.08 1.193.243.376.162.705.397.986.707.28.31.505.688.671 1.136.167.447.25.957.25 1.528v.257c0 .581-.08 1.096-.243 1.543a3.442 3.442 0 0 1-.657 1.136c-.276.31-.602.543-.978.7a3.138 3.138 0 0 1-1.222.236 3.15 3.15 0 0 1-.843-.1 2.249 2.249 0 0 1-.621-.272 1.867 1.867 0 0 1-.443-.393 2.896 2.896 0 0 1-.307-.464h-.257Zm1.885-.486c-.562 0-1.016-.178-1.364-.535-.348-.358-.521-.827-.521-1.408v-.17c0-.582.173-1.05.521-1.408.348-.357.802-.536 1.364-.536s1.017.174 1.365.522c.347.347.521.821.521 1.421v.171c0 .6-.174 1.074-.521 1.422-.348.348-.803.521-1.365.521Zm18.896 1.515v-1.715h-1.914c-.257 0-.386-.142-.386-.428v-3.229h2.558v-1.714h-2.558v-2.914h-1.8v2.914h-2.1v1.714h2.1V29.6c0 .324.103.59.308.8.204.21.468.315.792.315h3Zm6.755-.043a4.024 4.024 0 0 1-1.392.243c-.486 0-.95-.081-1.393-.243a3.57 3.57 0 0 1-1.179-.707 3.331 3.331 0 0 1-.814-1.143c-.2-.453-.3-.974-.3-1.565v-.17c0-.582.1-1.098.3-1.55.2-.453.471-.837.814-1.15a3.51 3.51 0 0 1 1.179-.715 4.025 4.025 0 0 1 1.393-.243c.485 0 .95.08 1.392.243.443.162.836.4 1.179.714.343.314.614.698.814 1.15.2.453.3.97.3 1.55v.171c0 .591-.1 1.112-.3 1.565-.2.452-.471.833-.814 1.143a3.57 3.57 0 0 1-1.179.707Zm-1.392-1.472c-.258 0-.5-.043-.729-.128a1.767 1.767 0 0 1-.6-.372 1.754 1.754 0 0 1-.407-.593c-.1-.233-.15-.497-.15-.792v-.286c0-.295.05-.56.15-.793.1-.233.236-.43.407-.593.171-.162.371-.285.6-.371.229-.086.471-.129.729-.129.257 0 .5.043.728.129.229.085.429.21.6.371.172.162.307.36.407.593.1.233.15.498.15.793v.286c0 .295-.05.56-.15.793-.1.233-.235.43-.407.592a1.769 1.769 0 0 1-.6.372 2.059 2.059 0 0 1-.728.128Zm9.219-.2v1.715h-4.886v-1.715h1.457v-3.657h-1.285v-1.714h3v1.029h.257c.133-.39.36-.693.678-.908.32-.214.703-.321 1.15-.321.705 0 1.272.221 1.7.664.429.443.643 1.117.643 2.022v.314l-1.857.171v-.2c0-.39-.1-.702-.3-.935-.2-.234-.5-.35-.9-.35s-.714.138-.943.414c-.228.276-.343.671-.343 1.186v2.285h1.629Zm7.062 1.915c.467 0 .874-.053 1.222-.158.347-.104.643-.238.885-.4.243-.161.441-.34.593-.535a2.98 2.98 0 0 0 .357-.565l-1.543-.857a1.41 1.41 0 0 1-.514.565c-.238.157-.58.235-1.028.235-.229 0-.446-.035-.65-.107a1.767 1.767 0 0 1-.543-.3 1.388 1.388 0 0 1-.521-1.036h5.199V26.8a3.57 3.57 0 0 0-.2-1.15 3.192 3.192 0 0 0-.628-1.085 3.395 3.395 0 0 0-1.086-.815c-.438-.214-.962-.321-1.571-.321-.496 0-.96.088-1.393.264a3.369 3.369 0 0 0-1.9 1.879 3.841 3.841 0 0 0-.279 1.485v.086c0 .59.088 1.12.264 1.586.177.467.424.862.743 1.186a3.22 3.22 0 0 0 1.136.742c.438.172.924.258 1.457.258Zm-1.714-4.7h3.343c-.057-.334-.236-.61-.536-.829-.3-.219-.678-.329-1.136-.329-.457 0-.828.117-1.114.35-.286.234-.471.503-.557.808ZM51.825 9.603a.655.655 0 0 1-.525 0 .734.734 0 0 1-.214-.142.673.673 0 0 1-.2-.482.673.673 0 0 1 .94-.626.72.72 0 0 1 .217.143.673.673 0 0 1 .2.482.673.673 0 0 1-.2.483.721.721 0 0 1-.218.142ZM38.48 12.5l-.243 1.071h-.986l1.193-5h1.771l1.193 5h-.986L40.18 12.5h-1.7Zm.2-.9h1.292l-.578-2.557h-.129L38.68 11.6Zm5.552 1.971 1.014-3.543h-.971l-.836 3.115h-.128l-.836-3.115h-.971l1.014 3.543h1.714Zm3.467-.04a1.24 1.24 0 0 1-.6.14 1.51 1.51 0 0 1-.604-.121c-.188-.081-.353-.2-.496-.357a1.742 1.742 0 0 1-.34-.572 2.178 2.178 0 0 1-.124-.764v-.114c0-.281.04-.534.121-.758.081-.223.19-.414.329-.57a1.407 1.407 0 0 1 1.071-.486c.252 0 .456.042.61.128.156.086.278.219.369.4h.128v-.429h.9V12.5c0 .143.065.214.193.214h.136v.857h-.614a.559.559 0 0 1-.397-.143.484.484 0 0 1-.154-.371h-.128c-.095.224-.229.382-.4.475Zm-.4-.717a.806.806 0 0 1-.629-.26c-.157-.174-.235-.411-.235-.711v-.086c0-.3.078-.537.235-.71a.806.806 0 0 1 .629-.261c.262 0 .471.086.628.26.158.174.236.41.236.71v.087c0 .3-.078.537-.236.71a.806.806 0 0 1-.628.261Zm5.752-.1h-1.028v-2.686h-2.014v.857h1.114v1.83h-1.2v.856h3.129v-.857Zm2.982 0h1.157v.857h-3.3v-.857h1.243V9.428h-1.2v-.857h2.1v4.143Zm3.224.957c.228 0 .428-.046.6-.14.171-.092.304-.25.4-.474h.128c0 .152.051.276.154.371a.559.559 0 0 0 .396.143h.614v-.857h-.135c-.129 0-.193-.071-.193-.214v-2.472h-.9v.429h-.129a.902.902 0 0 0-.367-.4c-.155-.086-.359-.129-.611-.129a1.407 1.407 0 0 0-1.072.486 1.762 1.762 0 0 0-.328.572 2.214 2.214 0 0 0-.122.757v.114c0 .286.042.54.125.764.084.224.197.415.34.572.142.157.308.276.496.357.188.08.39.121.604.121Zm-.429-1.118c.157.174.367.261.629.261a.806.806 0 0 0 .628-.26c.157-.174.236-.411.236-.711v-.086c0-.3-.079-.537-.236-.71a.806.806 0 0 0-.628-.261.806.806 0 0 0-.629.26c-.157.174-.236.41-.236.71v.087c0 .3.079.537.236.71Zm5.174 1.118c.22 0 .423-.04.61-.118.189-.078.352-.195.49-.35.138-.154.248-.344.329-.567.08-.224.121-.481.121-.772v-.129c0-.285-.042-.54-.125-.764a1.732 1.732 0 0 0-.336-.568 1.415 1.415 0 0 0-.493-.353 1.493 1.493 0 0 0-.596-.122c-.28 0-.512.054-.693.161-.18.107-.319.258-.414.454h-.129V8.57h-.9v5h.9v-.514h.129c.043.08.094.158.153.232.06.074.134.14.222.197.088.057.192.102.31.135.12.034.26.05.422.05Zm-.975-1.125c.174.179.401.268.682.268s.508-.087.682-.26c.174-.174.261-.411.261-.711v-.086c0-.3-.087-.537-.26-.71-.175-.175-.402-.261-.683-.261-.28 0-.508.089-.682.267-.174.179-.26.413-.26.704v.086c0 .29.086.525.26.703Zm6.32.168H68.19V8.571h-2.1v.857h1.2v3.286h-1.243v.857h3.3v-.857Zm3.05.879a2.128 2.128 0 0 1-.611.078c-.267 0-.51-.043-.729-.128a1.612 1.612 0 0 1-.94-.965 2.233 2.233 0 0 1-.131-.792v-.043c0-.272.046-.52.139-.743a1.684 1.684 0 0 1 .95-.94c.217-.088.449-.132.696-.132.305 0 .567.054.786.161.22.107.4.243.543.407.143.165.248.345.314.543.067.198.1.39.1.575v.479h-2.6a.692.692 0 0 0 .261.518.884.884 0 0 0 .271.15.98.98 0 0 0 .325.053c.224 0 .396-.04.515-.118a.704.704 0 0 0 .257-.282l.771.429a1.53 1.53 0 0 1-.178.282 1.254 1.254 0 0 1-.297.268c-.121.08-.269.147-.443.2Zm.203-2.272h-1.671a.799.799 0 0 1 .278-.403c.143-.117.329-.175.557-.175.229 0 .418.054.568.164.15.11.24.248.268.414Zm7.951 2.229a2.011 2.011 0 0 1-.696.121c-.243 0-.475-.04-.696-.121a1.783 1.783 0 0 1-.59-.354 1.664 1.664 0 0 1-.407-.571c-.1-.226-.15-.487-.15-.782v-.086c0-.29.05-.549.15-.775a1.704 1.704 0 0 1 .997-.932c.221-.081.453-.122.696-.122.243 0 .475.04.697.122a1.705 1.705 0 0 1 .996.932c.1.226.15.485.15.775v.086c0 .295-.05.556-.15.782-.1.226-.236.416-.407.571a1.784 1.784 0 0 1-.59.354Zm-.696-.736c-.129 0-.25-.021-.364-.064a.878.878 0 0 1-.504-.482.998.998 0 0 1-.075-.397v-.143c0-.147.025-.28.075-.396a.878.878 0 0 1 .504-.482c.114-.043.236-.064.364-.064.129 0 .25.02.364.064a.878.878 0 0 1 .504.482c.05.117.075.249.075.396v.143c0 .148-.025.28-.075.397a.878.878 0 0 1-.504.482 1.028 1.028 0 0 1-.364.064Zm3.324-1.086v1.843h-.9v-3.543h.9v.529h.129a.94.94 0 0 1 .392-.464c.181-.11.393-.165.636-.165.172 0 .332.028.482.082.15.055.283.14.397.254.114.114.203.26.268.436.064.176.096.386.096.628v2.243h-.9v-2.014c0-.252-.06-.451-.182-.597-.121-.145-.296-.217-.525-.217-.267 0-.466.089-.597.268-.13.178-.196.417-.196.717Zm10.205.986h-.957c-.129 0-.193-.071-.193-.214v-1.614h1.279v-.858h-1.279V8.571h-.9v1.457h-1.05v.857h1.05v2.13a.53.53 0 0 0 .55.557h1.5v-.858Zm1.967-.986v1.843h-.9v-5h.9V10.6h.129c.09-.214.223-.38.4-.497.176-.116.392-.175.65-.175.176 0 .338.029.485.086.148.057.276.143.386.257.11.114.195.26.257.44.062.178.093.389.093.632v2.228h-.9v-2.014c0-.252-.06-.451-.182-.597-.122-.145-.297-.217-.525-.217-.267 0-.466.089-.597.268-.13.178-.196.417-.196.717Zm4.803 1.943c.233 0 .436-.026.61-.078.174-.053.322-.12.443-.2.122-.081.22-.17.297-.268.076-.098.135-.192.178-.282l-.771-.429a.709.709 0 0 1-.257.282c-.119.079-.291.118-.515.118a.98.98 0 0 1-.325-.053.884.884 0 0 1-.271-.15.695.695 0 0 1-.26-.518h2.599v-.479c0-.186-.033-.377-.1-.575a1.605 1.605 0 0 0-.314-.543 1.696 1.696 0 0 0-.543-.407 1.773 1.773 0 0 0-.786-.16c-.247 0-.48.043-.696.131a1.685 1.685 0 0 0-.95.94c-.093.224-.14.471-.14.743v.043c0 .295.045.559.133.792.088.234.212.431.371.593.16.162.349.286.568.372.219.085.462.128.729.128Zm-.858-2.35h1.672a.637.637 0 0 0-.268-.414.938.938 0 0 0-.568-.164c-.228 0-.414.058-.557.175a.8.8 0 0 0-.279.403Z" clip-rule="evenodd"/><path fill="#495567" d="M24.298 14.667c1.378 0 2.838.745 3.877 2.03-3.405 1.853-2.854 6.68.587 7.973-.473 1.04-.7 1.505-1.31 2.427-.85 1.286-2.05 2.888-3.537 2.9-1.32.014-1.661-.853-3.453-.843-1.792.01-2.165.858-3.487.846-1.487-.012-2.623-1.459-3.474-2.745-2.378-3.595-2.63-7.815-1.162-10.06 1.044-1.594 2.69-2.526 4.236-2.526 1.574 0 2.565.857 3.868.857 1.265 0 2.035-.859 3.855-.859ZM24.06 10c.173 1.178-.307 2.332-.94 3.148-.678.875-1.848 1.552-2.98 1.517-.206-1.128.324-2.289.967-3.07.706-.862 1.917-1.524 2.953-1.595Z"/></svg>