<svg xmlns="http://www.w3.org/2000/svg" width="130" height="40" fill="none"><rect width="130" height="40" fill="#E5ECF4" rx="4"/><path fill="#495567" fill-rule="evenodd" d="M42.514 30.535c-.324.253-.81.379-1.457.379-.457 0-.886-.086-1.285-.258a2.875 2.875 0 0 1-1.043-.764 3.722 3.722 0 0 1-.7-1.257c-.172-.5-.258-1.083-.258-1.75v-2.343c0-.647.093-1.221.28-1.721.185-.5.442-.922.77-1.265a3.206 3.206 0 0 1 1.18-.778 4.178 4.178 0 0 1 1.513-.264c.572 0 1.081.093 1.529.278a3.32 3.32 0 0 1 1.143.772c.314.328.552.714.714 1.157.162.443.243.916.243 1.421v.172h-1.886v-.172c0-.6-.155-1.055-.464-1.364-.31-.31-.745-.464-1.307-.464-.534 0-.972.178-1.314.535-.343.357-.515.97-.515 1.836V26.8c0 1.543.629 2.315 1.886 2.315.562 0 .988-.15 1.279-.45.29-.3.435-.703.435-1.208h-2.4v-1.8h4.286v5.058h-1.714v-1.115h-.258a1.861 1.861 0 0 1-.657.936Zm8.498.136a4.025 4.025 0 0 1-1.393.243c-.485 0-.95-.081-1.392-.243a3.57 3.57 0 0 1-1.179-.707 3.332 3.332 0 0 1-.814-1.143c-.2-.453-.3-.974-.3-1.565v-.17c0-.582.1-1.098.3-1.55.2-.453.471-.837.814-1.15a3.51 3.51 0 0 1 1.179-.715 4.024 4.024 0 0 1 1.392-.243c.486 0 .95.08 1.393.243.443.162.836.4 1.179.714.343.314.614.698.814 1.15.2.453.3.97.3 1.55v.171c0 .591-.1 1.112-.3 1.565-.2.452-.471.833-.814 1.143a3.57 3.57 0 0 1-1.179.707Zm-1.393-1.472c-.257 0-.5-.043-.728-.128a1.767 1.767 0 0 1-.6-.372 1.753 1.753 0 0 1-.407-.593c-.1-.233-.15-.497-.15-.792v-.286c0-.295.05-.56.15-.793.1-.233.235-.43.407-.593.171-.162.371-.285.6-.371.228-.086.471-.129.728-.129.258 0 .5.043.729.129.229.085.429.21.6.371.171.162.307.36.407.593.1.233.15.498.15.793v.286c0 .295-.05.56-.15.793-.1.233-.236.43-.407.592a1.767 1.767 0 0 1-.6.372 2.058 2.058 0 0 1-.729.128Zm9.498 1.472a4.025 4.025 0 0 1-1.392.243c-.486 0-.95-.081-1.393-.243a3.57 3.57 0 0 1-1.179-.707 3.332 3.332 0 0 1-.814-1.143c-.2-.453-.3-.974-.3-1.565v-.17c0-.582.1-1.098.3-1.55.2-.453.471-.837.814-1.15a3.51 3.51 0 0 1 1.179-.715 4.024 4.024 0 0 1 1.392-.243c.486 0 .95.08 1.393.243.443.162.836.4 1.179.714.343.314.614.698.814 1.15.2.453.3.97.3 1.55v.171c0 .591-.1 1.112-.3 1.565-.2.452-.471.833-.814 1.143a3.57 3.57 0 0 1-1.179.707Zm-1.392-1.472c-.258 0-.5-.043-.729-.128a1.767 1.767 0 0 1-.6-.372 1.753 1.753 0 0 1-.407-.593c-.1-.233-.15-.497-.15-.792v-.286c0-.295.05-.56.15-.793.1-.233.236-.43.407-.593.171-.162.371-.285.6-.371.228-.086.471-.129.728-.129.258 0 .5.043.73.129.228.085.428.21.6.371.17.162.306.36.406.593.1.233.15.498.15.793v.286c0 .295-.05.56-.15.793-.1.233-.236.43-.407.592a1.767 1.767 0 0 1-.6.372 2.058 2.058 0 0 1-.729.128Zm11.398 4.058c-.205.21-.47.314-.793.314h-4.772v-1.714h3.686c.257 0 .386-.143.386-.429v-1.743h-.257a2.722 2.722 0 0 1-.28.464c-.109.148-.251.279-.428.393a2.238 2.238 0 0 1-.628.272c-.243.066-.536.1-.879.1-.438 0-.845-.079-1.221-.236a2.75 2.75 0 0 1-.986-.7c-.28-.31-.5-.688-.657-1.136-.157-.447-.236-.962-.236-1.543v-.257c0-.571.084-1.08.25-1.528a3.34 3.34 0 0 1 .686-1.136c.29-.31.629-.545 1.014-.707a3.124 3.124 0 0 1 1.222-.243c.571 0 1.023.107 1.357.321.333.215.595.517.785.908h.258v-1.029h1.8v8.828c0 .324-.103.591-.308.8Zm-3.38-4.058c-.561 0-1.016-.173-1.363-.521-.348-.348-.522-.822-.522-1.422v-.17c0-.6.174-1.075.522-1.422.347-.348.802-.522 1.364-.522s1.017.179 1.364.536c.348.357.522.826.522 1.407v.171c0 .581-.174 1.05-.522 1.408-.347.357-.802.535-1.364.535Zm11.492-.2v1.715h-6.6v-1.715h2.486v-6.571h-2.4v-1.714h4.2v8.285h2.314Zm4.876 1.915c.467 0 .874-.053 1.222-.158.347-.104.643-.238.885-.4.243-.161.44-.34.593-.535.153-.195.272-.384.357-.565l-1.542-.857a1.41 1.41 0 0 1-.515.565c-.238.157-.58.235-1.028.235-.229 0-.445-.035-.65-.107a1.766 1.766 0 0 1-.543-.3 1.388 1.388 0 0 1-.522-1.036h5.2V26.8c0-.371-.066-.754-.2-1.15a3.203 3.203 0 0 0-.628-1.085 3.39 3.39 0 0 0-1.086-.815c-.438-.214-.962-.321-1.571-.321-.495 0-.96.088-1.393.264a3.368 3.368 0 0 0-1.9 1.879 3.84 3.84 0 0 0-.279 1.485v.086c0 .59.088 1.12.265 1.586.176.467.423.862.742 1.186.32.323.698.571 1.136.742.438.172.924.258 1.457.258Zm-1.714-4.7h3.343c-.057-.334-.236-.61-.536-.829-.3-.219-.678-.329-1.136-.329-.457 0-.828.117-1.114.35-.286.234-.471.503-.557.808Zm8.29 4.5v-3.772h2.03c.514 0 .961-.085 1.342-.257a2.8 2.8 0 0 0 .95-.678c.253-.281.443-.6.572-.958.128-.357.192-.721.192-1.093v-.342c0-.362-.064-.717-.192-1.065a2.753 2.753 0 0 0-.572-.928 2.818 2.818 0 0 0-.95-.657c-.38-.167-.828-.25-1.343-.25h-3.914v10h1.886Zm0-5.572h1.844c.419 0 .75-.114.992-.343.243-.228.365-.523.365-.885v-.172c0-.362-.122-.657-.365-.886-.242-.228-.573-.342-.992-.342h-1.843v2.628Zm12.863 5.572v-1.715h-2.314v-8.285h-4.2v1.714h2.4v6.571H94.95v1.715h6.6Zm5.334-.079c-.343.186-.743.279-1.2.279-.429 0-.831-.081-1.207-.243a2.844 2.844 0 0 1-.993-.715 3.486 3.486 0 0 1-.679-1.142c-.167-.448-.25-.957-.25-1.529v-.229c0-.561.081-1.066.243-1.514.162-.447.381-.828.657-1.143.276-.314.598-.554.964-.721.367-.167.76-.25 1.179-.25.505 0 .912.086 1.221.257.31.172.555.438.736.8h.257v-.857h1.8v4.943c0 .285.129.428.386.428h.271v1.715h-1.228c-.324 0-.588-.096-.793-.286a.967.967 0 0 1-.307-.743h-.257c-.191.448-.457.764-.8.95Zm-.8-1.436c-.524 0-.943-.173-1.257-.521-.315-.348-.472-.822-.472-1.422v-.17c0-.6.157-1.075.472-1.422.314-.348.733-.522 1.257-.522.524 0 .943.174 1.257.522.314.347.471.821.471 1.421v.171c0 .6-.157 1.074-.471 1.422-.314.348-.733.521-1.257.521Zm11.412 4.058c-.205.21-.469.314-.793.314h-4.214v-1.714h3.128c.258 0 .386-.143.386-.429v-1.743h-.257c-.314.82-.99 1.229-2.029 1.229-.352 0-.681-.058-.985-.172a2.129 2.129 0 0 1-.8-.528 2.483 2.483 0 0 1-.536-.893c-.129-.357-.193-.779-.193-1.265v-4.428h1.8v4.057c0 .505.119.898.357 1.179.238.28.595.421 1.072.421.543 0 .94-.174 1.193-.521.252-.348.378-.822.378-1.422v-3.714h1.8v8.828c0 .324-.102.591-.307.8ZM55.617 9.657a.72.72 0 0 0 .479-.196.673.673 0 0 0 .2-.482.673.673 0 0 0-.2-.483.72.72 0 0 0-.218-.143.655.655 0 0 0-.525 0 .734.734 0 0 0-.214.143.673.673 0 0 0-.2.482.673.673 0 0 0 .678.679ZM39.83 13.482c-.162.126-.405.19-.73.19-.228 0-.442-.044-.642-.13a1.438 1.438 0 0 1-.521-.381 1.86 1.86 0 0 1-.35-.63 2.699 2.699 0 0 1-.129-.874v-1.171c0-.324.047-.611.14-.861.092-.25.22-.46.385-.632.164-.172.36-.302.59-.39a2.09 2.09 0 0 1 .756-.132c.286 0 .54.047.765.14.224.092.414.221.571.385.157.165.276.357.357.579.081.221.122.458.122.71v.086H40.2v-.085c0-.3-.078-.528-.232-.683-.155-.154-.373-.232-.654-.232a.871.871 0 0 0-.657.268c-.171.179-.257.485-.257.918v1.057c0 .771.314 1.157.943 1.157.28 0 .494-.075.639-.225.145-.15.218-.351.218-.603H39v-.9h2.143v2.528h-.857v-.557h-.129a.93.93 0 0 1-.328.468Zm4.198.11a2.127 2.127 0 0 1-.61.08c-.267 0-.51-.044-.729-.13a1.612 1.612 0 0 1-.94-.964 2.233 2.233 0 0 1-.131-.792v-.043c0-.272.046-.52.139-.743a1.684 1.684 0 0 1 .95-.94c.217-.088.449-.132.696-.132.305 0 .567.054.786.161.22.107.4.243.543.407.143.165.248.345.314.543.067.198.1.39.1.575v.479h-2.6a.695.695 0 0 0 .261.518c.079.064.17.114.271.15a.98.98 0 0 0 .325.053c.224 0 .396-.04.515-.118a.704.704 0 0 0 .257-.282l.771.429a1.53 1.53 0 0 1-.178.282 1.254 1.254 0 0 1-.297.268 1.66 1.66 0 0 1-.443.2Zm.204-2.27H42.56a.799.799 0 0 1 .278-.404c.143-.117.329-.175.557-.175.229 0 .418.054.568.164.15.11.24.248.268.414Zm4.574 1.392v.857h-1.5a.53.53 0 0 1-.55-.557v-2.128h-1.05v-.858h1.05V8.571h.9v1.457h1.279v.857h-1.279V12.5c0 .143.064.214.193.214h.957Zm8.298 0v.857h-3.129v-.857h1.2v-1.829H54.06v-.857h2.014v2.686h1.029Zm3.86.857v-.857h-.958c-.128 0-.192-.071-.192-.214v-1.614h1.278v-.858h-1.278V8.571h-.9v1.457h-1.05v.857h1.05v2.13a.53.53 0 0 0 .55.557h1.5Zm7.43-.021a2.01 2.01 0 0 1-.697.121c-.242 0-.475-.04-.696-.121a1.784 1.784 0 0 1-.59-.354 1.665 1.665 0 0 1-.406-.571c-.1-.226-.15-.487-.15-.782v-.086c0-.29.05-.549.15-.775A1.705 1.705 0 0 1 67 10.05c.221-.081.454-.122.696-.122.243 0 .475.04.697.122a1.704 1.704 0 0 1 .996.932c.1.226.15.485.15.775v.086c0 .295-.05.556-.15.782-.1.226-.236.416-.407.571a1.783 1.783 0 0 1-.59.354Zm-.697-.736c-.128 0-.25-.021-.364-.064a.878.878 0 0 1-.503-.482.998.998 0 0 1-.075-.397v-.143c0-.147.024-.28.075-.396a.878.878 0 0 1 .503-.482c.114-.043.236-.064.364-.064.129 0 .25.02.365.064a.878.878 0 0 1 .504.482c.05.117.074.249.074.396v.143c0 .148-.025.28-.075.397a.878.878 0 0 1-.503.482 1.028 1.028 0 0 1-.365.064Zm3.324-1.086v1.843h-.9v-3.543h.9v.529h.129a.94.94 0 0 1 .393-.464c.18-.11.393-.165.635-.165.172 0 .333.028.483.082.15.055.282.14.396.254.114.114.204.26.268.436.064.176.096.386.096.628v2.243h-.9v-2.014c0-.252-.06-.451-.182-.597-.121-.145-.296-.217-.525-.217-.267 0-.465.089-.596.268-.131.178-.197.417-.197.717ZM12.395 10.17a1.677 1.677 0 0 1 1.609.076l9.908 5.77-2.838 2.852-8.68-8.699Zm-.966 1.56c0-.266.059-.524.168-.756l8.678 8.697-8.676 8.717a1.702 1.702 0 0 1-.17-.747V11.73Zm9.647 8.743L12.41 29.18c.23.106.474.153.719.153.301 0 .602-.072.875-.236l9.91-5.779-2.838-2.845Zm6.6-2.265a1.686 1.686 0 0 1 .828 1.459c0 .598-.306 1.141-.818 1.452l-2.76 1.609-3.051-3.058 3.05-3.065 2.75 1.603Z" clip-rule="evenodd"/></svg>